<?xml version="1.0" encoding="UTF-8"?>
<svg xmlns="http://www.w3.org/2000/svg" xmlns:xlink="http://www.w3.org/1999/xlink" width="371.3pt" height="340.1pt" viewBox="0 0 371.3 340.1" version="1.1">
<defs>
<clipPath id="clip1">
  <path d="M 0 0 L 341 0 L 341 340.101563 L 0 340.101563 Z M 0 0 "/>
</clipPath>
<clipPath id="clip2">
  <path d="M 0 189 L 371.300781 189 L 371.300781 284 L 0 284 Z M 0 189 "/>
</clipPath>
</defs>
<g id="surface1">
<path style=" stroke:none;fill-rule:evenodd;fill:rgb(59.959412%,80.076599%,80.076599%);fill-opacity:1;" d="M 170.078125 56.625 C 180.773438 56.625 191.121094 58.109375 200.929688 60.875 L 139.226563 60.875 C 149.035156 58.109375 159.382813 56.625 170.078125 56.625 Z M 209.601563 63.710938 C 212.992188 64.972656 216.308594 66.394531 219.539063 67.964844 L 120.617188 67.964844 C 123.847656 66.394531 127.164063 64.972656 130.558594 63.710938 Z M 224.992188 70.796875 C 227.394531 72.128906 229.742188 73.550781 232.035156 75.050781 L 108.125 75.050781 C 110.414063 73.550781 112.761719 72.128906 115.164063 70.796875 Z M 236.171875 77.882813 C 238.066406 79.246094 239.914063 80.664063 241.71875 82.136719 L 98.441406 82.136719 C 100.246094 80.664063 102.09375 79.246094 103.984375 77.882813 Z M 245.058594 84.972656 C 247.117188 86.789063 249.109375 88.679688 251.03125 90.640625 L 89.125 90.640625 C 91.046875 88.679688 93.039063 86.789063 95.097656 84.972656 Z M 253.71875 93.476563 C 255.398438 95.308594 257.019531 97.203125 258.578125 99.144531 L 81.578125 99.144531 C 83.136719 97.203125 84.757813 95.308594 86.4375 93.476563 Z M 261.828125 103.394531 C 268.382813 112.40625 273.644531 122.417969 277.335938 133.160156 L 62.820313 133.160156 C 66.511719 122.417969 71.773438 112.40625 78.328125 103.394531 Z M 279.117188 138.828125 C 281.949219 148.734375 283.464844 159.195313 283.464844 170.011719 C 283.464844 175.789063 283.027344 181.46875 282.195313 187.019531 L 57.964844 187.019531 C 57.128906 181.46875 56.691406 175.789063 56.691406 170.011719 C 56.691406 159.195313 58.210938 148.734375 61.039063 138.828125 Z M 281.195313 192.6875 C 270.683594 244.433594 224.921875 283.394531 170.078125 283.394531 C 115.234375 283.394531 69.472656 244.433594 58.964844 192.6875 Z M 281.195313 192.6875 "/>
<g clip-path="url(#clip1)" clip-rule="nonzero">
<path style=" stroke:none;fill-rule:evenodd;fill:rgb(59.959412%,59.959412%,100%);fill-opacity:1;" d="M 170.078125 -0.0703125 C 263.996094 -0.0703125 340.15625 76.09375 340.15625 170.011719 C 340.15625 263.925781 263.996094 340.089844 170.078125 340.089844 C 76.164063 340.089844 0 263.925781 0 170.011719 C 0 76.09375 76.164063 -0.0703125 170.078125 -0.0703125 Z M 170.078125 48.121094 C 237.386719 48.121094 291.96875 102.703125 291.96875 170.011719 C 291.96875 237.316406 237.386719 291.898438 170.078125 291.898438 C 102.773438 291.898438 48.1875 237.316406 48.1875 170.011719 C 48.1875 102.703125 102.773438 48.121094 170.078125 48.121094 Z M 170.078125 48.121094 "/>
</g>
<path style=" stroke:none;fill-rule:evenodd;fill:rgb(100%,100%,100%);fill-opacity:1;" d="M 247.613281 243.394531 C 257.929688 232.425781 264.449219 222.195313 283.464844 216.855469 C 294.070313 213.878906 310.328125 215.21875 336.597656 210.558594 C 345.210938 209.03125 353.335938 202.128906 368.503906 195.695313 L 368.503906 194.921875 C 342.277344 195.421875 328.8125 194.699219 319.523438 195.488281 C 311.070313 196.207031 306.113281 198.472656 297.496094 198.230469 C 221.289063 196.070313 229.519531 223.925781 194.488281 233.894531 C 176.910156 226.785156 157.648438 226.976563 139.035156 234.863281 C 127.730469 226.417969 114.238281 216.925781 102.363281 211.53125 C 95.242188 208.296875 89.816406 208.765625 82.671875 205.570313 C 52.609375 192.117188 36.644531 190.421875 -17.007813 194.921875 L -17.007813 195.695313 C -11.550781 198.800781 -3.355469 199.703125 7.578125 201.902344 C 23.0625 211.402344 33.496094 208.945313 49.933594 209.269531 C 85.070313 230.726563 108.308594 243.78125 123.136719 248.824219 L 122.75 249.597656 C 116.414063 257.699219 116.675781 266.144531 121.199219 274.929688 C 144.078125 260.199219 162.949219 258.539063 192.9375 264.722656 C 193.84375 274.070313 194.390625 278.15625 194.488281 281.007813 C 207.011719 280.335938 209.886719 277.515625 211.597656 273.378906 C 224.523438 274.09375 233.785156 272.175781 238.308594 269.761719 C 234.429688 263.6875 228.675781 260.648438 215.234375 261.425781 C 214.070313 259.226563 213.925781 259.214844 211.988281 257.792969 L 211.9375 257.742188 C 214.265625 251.925781 225.898438 247.402344 246.839844 244.167969 Z M 247.613281 243.394531 "/>
<g clip-path="url(#clip2)" clip-rule="nonzero">
<path style="fill:none;stroke-width:56.693;stroke-linecap:round;stroke-linejoin:round;stroke:rgb(100%,100%,100%);stroke-opacity:1;stroke-miterlimit:4;" d="M 2476.132813 967.054688 C 2579.296875 1076.742188 2644.492188 1179.046875 2834.648438 1232.445313 C 2940.703125 1262.210938 3103.28125 1248.8125 3365.976563 1295.414063 C 3452.109375 1310.6875 3533.359375 1379.710938 3685.039063 1444.046875 L 3685.039063 1451.78125 C 3422.773438 1446.78125 3288.125 1454.007813 3195.234375 1446.117188 C 3110.703125 1438.929688 3061.132813 1416.273438 2974.960938 1418.695313 C 2212.890625 1440.296875 2295.195313 1161.742188 1944.882813 1062.054688 C 1769.101563 1133.148438 1576.484375 1131.234375 1390.351563 1052.367188 C 1277.304688 1136.820313 1142.382813 1231.742188 1023.632813 1285.6875 C 952.421875 1318.03125 898.164063 1313.34375 826.71875 1345.296875 C 526.09375 1479.828125 366.445313 1496.78125 -170.078125 1451.78125 L -170.078125 1444.046875 C -115.507813 1412.992188 -33.554688 1403.96875 75.78125 1381.976563 C 230.625 1286.976563 334.960938 1311.546875 499.335938 1308.304688 C 850.703125 1093.734375 1083.085938 963.1875 1231.367188 912.757813 L 1227.5 905.023438 C 1164.140625 824.007813 1166.757813 739.554688 1211.992188 651.703125 C 1440.78125 799.007813 1629.492188 815.609375 1929.375 753.773438 C 1938.4375 660.296875 1943.90625 619.4375 1944.882813 590.921875 C 2070.117188 597.640625 2098.867188 625.84375 2115.976563 667.210938 C 2245.234375 660.0625 2337.851563 679.242188 2383.085938 703.382813 C 2344.296875 764.125 2286.757813 794.515625 2152.34375 786.742188 C 2140.703125 808.734375 2139.257813 808.851563 2119.882813 823.070313 L 2119.375 823.578125 C 2142.65625 881.742188 2258.984375 926.976563 2468.398438 959.320313 Z M 2476.132813 967.054688 " transform="matrix(0.1,0,0,-0.1,0,340.1)"/>
</g>
<path style=" stroke:none;fill-rule:evenodd;fill:rgb(0%,0%,100%);fill-opacity:1;" d="M 247.613281 243.65625 C 257.929688 232.683594 264.449219 222.457031 283.464844 217.117188 C 294.070313 214.140625 310.328125 215.480469 336.597656 210.820313 C 345.210938 209.292969 353.335938 202.386719 368.503906 195.957031 L 368.503906 195.183594 C 342.277344 195.683594 328.8125 194.960938 319.523438 195.75 C 311.070313 196.464844 306.113281 198.734375 297.496094 198.488281 C 221.289063 196.332031 229.519531 224.1875 194.488281 234.152344 C 176.910156 227.042969 157.648438 227.238281 139.035156 235.125 C 127.730469 226.679688 114.238281 217.1875 102.363281 211.792969 C 95.242188 208.554688 89.816406 209.027344 82.671875 205.832031 C 52.609375 192.378906 36.644531 190.679688 -17.007813 195.183594 L -17.007813 195.957031 C -11.550781 199.058594 -3.355469 199.964844 7.578125 202.164063 C 23.0625 211.664063 33.496094 209.207031 49.933594 209.53125 C 85.070313 230.988281 108.308594 244.042969 123.136719 249.082031 L 122.75 249.859375 C 116.414063 257.960938 116.675781 266.40625 121.199219 275.191406 C 144.078125 260.457031 162.949219 258.800781 192.9375 264.984375 C 193.84375 274.328125 194.390625 278.417969 194.488281 281.269531 C 207.011719 280.59375 209.886719 277.777344 211.597656 273.636719 C 224.523438 274.355469 233.785156 272.4375 238.308594 270.023438 C 234.429688 263.949219 228.675781 260.910156 215.234375 261.6875 C 214.070313 259.488281 213.925781 259.472656 211.988281 258.050781 L 211.9375 258.003906 C 214.265625 252.1875 225.898438 247.660156 246.839844 244.429688 Z M 247.613281 243.65625 "/>
<path style=" stroke:none;fill-rule:evenodd;fill:rgb(100%,100%,100%);fill-opacity:1;" d="M 34.5 182.78125 L 16.40625 182.78125 L 16.40625 174.613281 C 16.40625 173.179688 16.675781 171.996094 17.210938 171.0625 C 17.742188 170.121094 18.453125 169.4375 19.324219 169.003906 C 20.199219 168.570313 21.160156 168.355469 22.207031 168.355469 C 23.253906 168.355469 24.214844 168.570313 25.089844 169.003906 C 25.964844 169.4375 26.671875 170.121094 27.210938 171.0625 C 27.75 171.996094 28.019531 173.179688 28.019531 174.613281 L 28.019531 178.796875 L 34.5 178.796875 Z M 19.503906 178.796875 L 24.921875 178.796875 L 24.921875 175.726563 C 24.921875 175.039063 24.851563 174.4375 24.710938 173.925781 C 24.570313 173.414063 24.300781 173 23.890625 172.691406 C 23.488281 172.378906 22.925781 172.222656 22.207031 172.222656 C 21.15625 172.222656 20.4375 172.535156 20.0625 173.15625 C 19.691406 173.785156 19.503906 174.640625 19.503906 175.726563 Z M 33.953125 167.667969 L 15.929688 166.09375 L 16.277344 162.125 L 23.1875 162.730469 L 23.824219 155.433594 L 16.914063 154.828125 L 17.261719 150.882813 L 35.285156 152.460938 L 34.9375 156.40625 L 27.164063 155.726563 L 26.527344 163.019531 L 34.300781 163.699219 Z M 26.261719 149.089844 C 24.96875 148.789063 23.792969 148.316406 22.738281 147.65625 C 21.683594 147.003906 20.820313 146.195313 20.152344 145.246094 C 19.480469 144.289063 19.039063 143.226563 18.820313 142.050781 C 18.605469 140.871094 18.648438 139.609375 18.960938 138.261719 C 19.273438 136.910156 19.785156 135.75 20.496094 134.785156 C 21.207031 133.824219 22.074219 133.0625 23.09375 132.507813 C 24.109375 131.945313 25.230469 131.601563 26.449219 131.472656 C 27.671875 131.339844 28.945313 131.429688 30.269531 131.734375 C 31.546875 132.03125 32.695313 132.5 33.714844 133.148438 C 34.742188 133.796875 35.585938 134.597656 36.253906 135.550781 C 36.921875 136.503906 37.367188 137.566406 37.582031 138.738281 C 37.796875 139.910156 37.746094 141.175781 37.433594 142.527344 C 37.027344 144.296875 36.269531 145.742188 35.160156 146.875 C 34.054688 148.007813 32.722656 148.757813 31.164063 149.125 C 29.609375 149.496094 27.972656 149.484375 26.261719 149.089844 Z M 27.160156 145.207031 C 28.199219 145.449219 29.207031 145.507813 30.183594 145.386719 C 31.15625 145.261719 32.003906 144.902344 32.722656 144.308594 C 33.441406 143.71875 33.925781 142.875 34.179688 141.773438 C 34.433594 140.679688 34.367188 139.707031 33.980469 138.863281 C 33.59375 138.015625 32.992188 137.320313 32.171875 136.785156 C 31.347656 136.242188 30.414063 135.855469 29.375 135.617188 C 28.289063 135.367188 27.257813 135.300781 26.265625 135.417969 C 25.28125 135.53125 24.421875 135.886719 23.703125 136.46875 C 22.980469 137.058594 22.496094 137.90625 22.238281 139.019531 C 21.980469 140.132813 22.046875 141.109375 22.4375 141.953125 C 22.828125 142.796875 23.441406 143.488281 24.28125 144.027344 C 25.121094 144.566406 26.078125 144.957031 27.160156 145.207031 Z M 39.21875 132.738281 L 22.113281 126.847656 L 26.519531 114.050781 L 29.699219 115.144531 L 26.589844 124.175781 L 30.230469 125.429688 L 33.085938 117.140625 L 36.015625 118.148438 L 33.160156 126.4375 L 37.359375 127.882813 L 40.53125 118.664063 L 43.691406 119.75 Z M 44.1875 118.664063 L 27.789063 111.015625 L 29.460938 107.429688 L 43.648438 105.730469 L 43.671875 105.6875 L 32.667969 100.554688 L 34.242188 97.179688 L 50.636719 104.824219 L 48.964844 108.414063 L 34.800781 110.125 L 34.777344 110.167969 L 45.757813 115.289063 Z M 51.777344 103.390625 L 36.109375 94.34375 L 38.101563 90.894531 L 53.769531 99.941406 Z M 53.707031 99.542969 L 49.578125 88.914063 L 39.175781 88.753906 L 41.820313 84.972656 L 48.589844 85.375 L 45.964844 79.058594 L 48.457031 75.496094 L 52.210938 85.191406 L 63.566406 85.460938 L 60.851563 89.339844 L 53.445313 88.988281 L 56.28125 95.867188 Z M 68.695313 79.464844 L 55.679688 66.898438 L 64.519531 57.742188 L 66.941406 60.078125 L 60.867188 66.371094 L 63.863281 69.265625 L 69.117188 63.828125 L 71.34375 65.976563 L 66.09375 71.414063 L 71.460938 76.601563 Z M 71.636719 63.351563 C 70.820313 62.304688 70.207031 61.195313 69.800781 60.019531 C 69.390625 58.847656 69.226563 57.675781 69.308594 56.519531 C 69.386719 55.355469 69.710938 54.25 70.28125 53.199219 C 70.855469 52.144531 71.683594 51.195313 72.777344 50.339844 C 73.871094 49.488281 74.996094 48.910156 76.15625 48.609375 C 77.3125 48.308594 78.464844 48.261719 79.609375 48.46875 C 80.753906 48.671875 81.839844 49.113281 82.871094 49.78125 C 83.902344 50.445313 84.835938 51.316406 85.671875 52.386719 C 86.480469 53.421875 87.078125 54.507813 87.460938 55.65625 C 87.847656 56.804688 88 57.957031 87.921875 59.117188 C 87.839844 60.28125 87.519531 61.386719 86.949219 62.429688 C 86.378906 63.476563 85.542969 64.425781 84.449219 65.28125 C 83.019531 66.398438 81.519531 67.046875 79.945313 67.230469 C 78.375 67.414063 76.867188 67.160156 75.425781 66.464844 C 73.980469 65.773438 72.71875 64.738281 71.636719 63.351563 Z M 74.777344 60.898438 C 75.433594 61.742188 76.179688 62.421875 77.015625 62.941406 C 77.851563 63.457031 78.734375 63.710938 79.667969 63.703125 C 80.59375 63.695313 81.503906 63.34375 82.394531 62.648438 C 83.277344 61.957031 83.839844 61.160156 84.070313 60.261719 C 84.304688 59.359375 84.273438 58.441406 83.972656 57.507813 C 83.671875 56.570313 83.191406 55.679688 82.535156 54.839844 C 81.847656 53.964844 81.089844 53.261719 80.246094 52.730469 C 79.40625 52.199219 78.515625 51.933594 77.589844 51.933594 C 76.65625 51.9375 75.746094 52.289063 74.847656 52.992188 C 73.945313 53.695313 73.382813 54.496094 73.15625 55.402344 C 72.929688 56.296875 72.972656 57.222656 73.28125 58.167969 C 73.597656 59.117188 74.09375 60.023438 74.777344 60.898438 Z M 95.246094 35.132813 L 101.371094 44.566406 C 102.035156 45.589844 102.46875 46.578125 102.667969 47.53125 C 102.867188 48.488281 102.855469 49.398438 102.621094 50.269531 C 102.394531 51.140625 101.960938 51.960938 101.324219 52.730469 C 100.6875 53.503906 99.867188 54.21875 98.855469 54.875 C 97.835938 55.535156 96.84375 56.003906 95.886719 56.277344 C 94.929688 56.550781 94 56.617188 93.101563 56.464844 C 92.207031 56.316406 91.367188 55.957031 90.582031 55.378906 C 89.796875 54.804688 89.074219 54.007813 88.410156 52.984375 L 82.28125 43.550781 L 85.625 41.378906 L 91.75 50.8125 C 92.402344 51.816406 93.136719 52.472656 93.96875 52.789063 C 94.796875 53.101563 95.820313 52.863281 97.039063 52.074219 C 97.8125 51.570313 98.351563 51.050781 98.664063 50.519531 C 98.976563 49.988281 99.074219 49.414063 98.953125 48.800781 C 98.835938 48.191406 98.527344 47.5 98.03125 46.734375 L 91.902344 37.300781 Z M 106.878906 49.421875 L 99.519531 32.890625 L 103.140625 31.28125 L 114.960938 39.308594 L 115.003906 39.289063 L 110.066406 28.195313 L 113.46875 26.683594 L 120.828125 43.210938 L 117.210938 44.820313 L 105.398438 36.816406 L 105.355469 36.835938 L 110.28125 47.90625 Z M 122.558594 42.46875 L 117.269531 25.164063 L 124.730469 22.882813 C 126.242188 22.421875 127.6875 22.328125 129.070313 22.601563 C 130.453125 22.878906 131.679688 23.558594 132.742188 24.640625 C 133.8125 25.726563 134.628906 27.195313 135.195313 29.046875 C 135.714844 30.75 135.882813 32.347656 135.699219 33.847656 C 135.519531 35.347656 134.949219 36.644531 133.996094 37.753906 C 133.042969 38.855469 131.71875 39.664063 130.019531 40.183594 Z M 122.0625 27.21875 L 125.390625 38.109375 L 128.765625 37.078125 C 129.558594 36.835938 130.222656 36.441406 130.761719 35.898438 C 131.304688 35.351563 131.652344 34.628906 131.8125 33.730469 C 131.96875 32.835938 131.863281 31.777344 131.492188 30.570313 C 131.207031 29.628906 130.871094 28.839844 130.492188 28.210938 C 130.113281 27.578125 129.65625 27.078125 129.136719 26.707031 C 128.613281 26.335938 127.996094 26.117188 127.277344 26.054688 C 126.558594 25.984375 125.722656 26.097656 124.773438 26.386719 Z M 136.121094 37.78125 L 140.074219 18.835938 L 144.105469 18.199219 L 153.625 35.007813 L 149.550781 35.652344 L 147.542969 31.890625 L 140.875 32.945313 L 140.082031 37.152344 Z M 142.71875 22.9375 L 141.429688 29.867188 L 146.0625 29.136719 L 142.765625 22.929688 Z M 155.589844 34.765625 L 154.5625 20.074219 L 149.148438 20.453125 L 148.914063 17.097656 L 163.691406 16.0625 L 163.925781 19.417969 L 158.511719 19.796875 L 159.539063 34.492188 Z M 165.273438 16.125 L 169.257813 16.125 L 169.257813 34.21875 L 165.273438 34.21875 Z M 170.972656 24.867188 C 171.066406 23.542969 171.355469 22.308594 171.839844 21.164063 C 172.320313 20.019531 172.980469 19.039063 173.816406 18.230469 C 174.65625 17.417969 175.636719 16.8125 176.761719 16.414063 C 177.894531 16.015625 179.148438 15.863281 180.527344 15.960938 C 181.910156 16.058594 183.136719 16.382813 184.199219 16.933594 C 185.261719 17.488281 186.148438 18.222656 186.855469 19.140625 C 187.570313 20.058594 188.085938 21.113281 188.40625 22.296875 C 188.726563 23.484375 188.839844 24.753906 188.742188 26.109375 C 188.652344 27.417969 188.367188 28.625 187.882813 29.734375 C 187.40625 30.847656 186.746094 31.808594 185.910156 32.617188 C 185.070313 33.429688 184.09375 34.035156 182.96875 34.429688 C 181.847656 34.824219 180.589844 34.972656 179.203125 34.875 C 177.394531 34.746094 175.84375 34.226563 174.554688 33.3125 C 173.261719 32.394531 172.3125 31.195313 171.707031 29.714844 C 171.097656 28.238281 170.851563 26.621094 170.972656 24.867188 Z M 174.949219 25.144531 C 174.875 26.210938 174.972656 27.214844 175.246094 28.164063 C 175.523438 29.105469 176.007813 29.882813 176.707031 30.503906 C 177.402344 31.117188 178.3125 31.464844 179.4375 31.542969 C 180.558594 31.621094 181.507813 31.402344 182.28125 30.890625 C 183.058594 30.375 183.652344 29.671875 184.054688 28.777344 C 184.457031 27.878906 184.695313 26.898438 184.769531 25.832031 C 184.847656 24.722656 184.75 23.695313 184.480469 22.734375 C 184.210938 21.777344 183.730469 20.984375 183.039063 20.367188 C 182.34375 19.746094 181.429688 19.394531 180.292969 19.316406 C 179.152344 19.238281 178.199219 19.453125 177.421875 19.972656 C 176.652344 20.488281 176.066406 21.207031 175.667969 22.117188 C 175.265625 23.03125 175.027344 24.035156 174.949219 25.144531 Z M 189.203125 35.515625 L 192.03125 17.644531 L 195.945313 18.265625 L 201.488281 31.433594 L 201.535156 31.441406 L 203.433594 19.449219 L 207.113281 20.035156 L 204.28125 37.902344 L 200.371094 37.28125 L 194.824219 24.136719 L 194.777344 24.128906 L 192.882813 36.097656 Z M 213.527344 41.195313 L 219.71875 24.195313 L 231.675781 28.546875 L 230.527344 31.707031 L 222.308594 28.71875 L 220.882813 32.632813 L 227.988281 35.21875 L 226.929688 38.128906 L 219.824219 35.542969 L 217.273438 42.558594 Z M 229.269531 37.574219 C 229.875 36.390625 230.621094 35.363281 231.515625 34.5 C 232.40625 33.632813 233.398438 32.992188 234.480469 32.574219 C 235.570313 32.15625 236.710938 31.980469 237.902344 32.054688 C 239.097656 32.128906 240.3125 32.476563 241.542969 33.105469 C 242.78125 33.738281 243.78125 34.515625 244.542969 35.4375 C 245.304688 36.359375 245.835938 37.382813 246.128906 38.507813 C 246.425781 39.628906 246.488281 40.800781 246.320313 42.015625 C 246.152344 43.234375 245.757813 44.449219 245.140625 45.660156 C 244.546875 46.828125 243.8125 47.828125 242.933594 48.660156 C 242.058594 49.5 241.074219 50.125 239.992188 50.542969 C 238.902344 50.960938 237.765625 51.136719 236.578125 51.058594 C 235.390625 50.984375 234.171875 50.628906 232.9375 50 C 231.320313 49.175781 230.097656 48.089844 229.269531 46.742188 C 228.4375 45.394531 228.03125 43.921875 228.050781 42.320313 C 228.066406 40.722656 228.472656 39.136719 229.269531 37.574219 Z M 232.820313 39.382813 C 232.335938 40.332031 232.035156 41.296875 231.917969 42.273438 C 231.800781 43.25 231.945313 44.15625 232.347656 45 C 232.746094 45.835938 233.449219 46.511719 234.453125 47.023438 C 235.453125 47.535156 236.414063 47.703125 237.328125 47.535156 C 238.242188 47.367188 239.0625 46.949219 239.78125 46.28125 C 240.503906 45.613281 241.105469 44.800781 241.59375 43.851563 C 242.097656 42.859375 242.410156 41.875 242.539063 40.886719 C 242.664063 39.898438 242.527344 38.980469 242.132813 38.144531 C 241.738281 37.300781 241.035156 36.621094 240.015625 36.105469 C 239 35.585938 238.035156 35.414063 237.121094 35.589844 C 236.210938 35.761719 235.390625 36.191406 234.664063 36.875 C 233.9375 37.558594 233.324219 38.390625 232.820313 39.382813 Z M 241.898438 54.414063 L 252.273438 39.59375 L 260.261719 45.1875 C 261.117188 45.785156 261.75 46.5 262.152344 47.328125 C 262.558594 48.152344 262.722656 49.003906 262.644531 49.875 C 262.570313 50.742188 262.269531 51.558594 261.738281 52.3125 C 261.113281 53.207031 260.390625 53.835938 259.578125 54.195313 C 258.761719 54.554688 257.839844 54.617188 256.804688 54.394531 L 256.777344 54.433594 C 257.375 55.121094 257.613281 55.894531 257.492188 56.75 C 257.378906 57.601563 257.042969 58.488281 256.484375 59.402344 C 256.230469 59.824219 255.960938 60.261719 255.683594 60.71875 C 255.402344 61.171875 255.160156 61.636719 254.957031 62.109375 C 254.753906 62.582031 254.65625 62.996094 254.65625 63.347656 L 251.402344 61.070313 C 251.472656 60.726563 251.609375 60.351563 251.816406 59.933594 C 252.023438 59.519531 252.300781 59.027344 252.644531 58.445313 C 252.984375 57.867188 253.230469 57.433594 253.378906 57.144531 C 253.664063 56.554688 253.839844 56.035156 253.886719 55.589844 C 253.9375 55.144531 253.84375 54.722656 253.617188 54.328125 C 253.386719 53.933594 253.007813 53.550781 252.464844 53.171875 L 249.222656 50.898438 L 245.160156 56.699219 Z M 253.761719 44.414063 L 250.847656 48.578125 L 254.410156 51.070313 C 255.152344 51.589844 255.824219 51.816406 256.433594 51.75 C 257.035156 51.683594 257.601563 51.277344 258.117188 50.535156 C 259.078125 49.164063 258.816406 47.953125 257.324219 46.910156 Z M 261.566406 69.367188 L 274.582031 56.800781 L 281.355469 63.816406 C 282.082031 64.566406 282.5625 65.390625 282.804688 66.277344 C 283.042969 67.164063 283.042969 68.03125 282.800781 68.871094 C 282.558594 69.710938 282.109375 70.449219 281.441406 71.09375 C 280.65625 71.851563 279.828125 72.328125 278.960938 72.527344 C 278.097656 72.722656 277.175781 72.609375 276.203125 72.191406 L 276.171875 72.226563 C 276.625 73.015625 276.710938 73.820313 276.429688 74.636719 C 276.15625 75.453125 275.65625 76.257813 274.933594 77.050781 C 274.601563 77.414063 274.257813 77.792969 273.894531 78.1875 C 273.535156 78.578125 273.210938 78.988281 272.917969 79.414063 C 272.628906 79.839844 272.453125 80.226563 272.386719 80.574219 L 269.628906 77.714844 C 269.761719 77.390625 269.96875 77.046875 270.25 76.679688 C 270.53125 76.3125 270.898438 75.882813 271.34375 75.378906 C 271.792969 74.875 272.117188 74.496094 272.316406 74.242188 C 272.710938 73.714844 272.976563 73.238281 273.109375 72.8125 C 273.246094 72.382813 273.234375 71.949219 273.085938 71.519531 C 272.9375 71.089844 272.636719 70.640625 272.179688 70.164063 L 269.425781 67.316406 L 264.335938 72.234375 Z M 275.121094 61.816406 L 271.46875 65.347656 L 274.488281 68.472656 C 275.117188 69.125 275.734375 69.476563 276.34375 69.527344 C 276.949219 69.578125 277.578125 69.285156 278.230469 68.65625 C 279.433594 67.492188 279.40625 66.253906 278.140625 64.945313 Z M 273.210938 81.515625 L 287.46875 70.378906 L 295.800781 81.042969 L 293.148438 83.117188 L 287.269531 75.589844 L 284.234375 77.960938 L 289.632813 84.867188 L 287.191406 86.773438 L 281.792969 79.867188 L 278.296875 82.597656 L 284.300781 90.285156 L 281.667969 92.339844 Z M 286.488281 89.035156 L 288.636719 92.222656 C 288.011719 92.652344 287.59375 93.15625 287.375 93.734375 C 287.160156 94.316406 287.125 94.921875 287.273438 95.558594 C 287.425781 96.191406 287.707031 96.816406 288.125 97.433594 C 288.625 98.175781 289.222656 98.753906 289.90625 99.152344 C 290.59375 99.558594 291.277344 99.53125 291.957031 99.074219 C 292.34375 98.8125 292.585938 98.46875 292.683594 98.054688 C 292.777344 97.636719 292.773438 97.179688 292.664063 96.671875 C 292.554688 96.171875 292.382813 95.601563 292.152344 94.960938 C 291.917969 94.324219 291.679688 93.660156 291.429688 92.96875 C 291.160156 92.164063 290.953125 91.449219 290.808594 90.824219 C 290.667969 90.207031 290.621094 89.574219 290.65625 88.9375 C 290.699219 88.296875 290.882813 87.695313 291.207031 87.121094 C 291.535156 86.554688 292.027344 86.046875 292.683594 85.605469 C 293.652344 84.949219 294.664063 84.660156 295.710938 84.730469 C 296.757813 84.800781 297.746094 85.160156 298.671875 85.800781 C 299.597656 86.441406 300.375 87.230469 301.007813 88.164063 C 301.738281 89.246094 302.242188 90.355469 302.523438 91.492188 C 302.804688 92.632813 302.769531 93.722656 302.40625 94.761719 C 302.039063 95.804688 301.3125 96.691406 300.21875 97.429688 L 298.0625 94.234375 C 298.875 93.621094 299.265625 92.9375 299.25 92.179688 C 299.230469 91.429688 298.921875 90.613281 298.328125 89.730469 C 297.917969 89.117188 297.421875 88.679688 296.847656 88.417969 C 296.265625 88.152344 295.679688 88.21875 295.09375 88.617188 C 294.800781 88.8125 294.601563 89.035156 294.503906 89.273438 C 294.402344 89.515625 294.386719 89.839844 294.449219 90.246094 C 294.515625 90.648438 294.679688 91.234375 294.9375 92.003906 C 295.195313 92.769531 295.5 93.644531 295.839844 94.632813 C 296.03125 95.105469 296.203125 95.621094 296.363281 96.171875 C 296.523438 96.722656 296.613281 97.347656 296.628906 98.050781 C 296.644531 98.75 296.488281 99.449219 296.164063 100.144531 C 295.835938 100.84375 295.273438 101.460938 294.476563 101.996094 C 293.792969 102.457031 293.066406 102.753906 292.304688 102.882813 C 291.542969 103.011719 290.757813 102.957031 289.957031 102.714844 C 289.144531 102.476563 288.367188 102.054688 287.617188 101.453125 C 286.863281 100.84375 286.144531 100.03125 285.457031 99.019531 C 284.898438 98.1875 284.464844 97.308594 284.15625 96.386719 C 283.847656 95.453125 283.710938 94.546875 283.753906 93.65625 C 283.792969 92.769531 284.035156 91.925781 284.480469 91.132813 C 284.925781 90.335938 285.59375 89.640625 286.488281 89.035156 Z M 290.015625 106.011719 L 306.410156 98.367188 L 312.132813 110.632813 L 309.082031 112.054688 L 305.046875 103.398438 L 301.554688 105.027344 L 305.261719 112.972656 L 302.453125 114.28125 L 298.75 106.335938 L 294.722656 108.210938 L 298.847656 117.050781 L 295.820313 118.460938 Z M 295.851563 117.476563 L 315.179688 118.417969 L 316.441406 122.300781 L 301.328125 134.332031 L 300.054688 130.410156 L 303.457031 127.835938 L 301.371094 121.414063 L 297.089844 121.289063 Z M 311.542969 121.671875 L 304.496094 121.484375 L 305.945313 125.941406 L 311.558594 121.714844 Z M 301.132813 134.46875 L 318.6875 130.09375 L 321.046875 139.554688 C 321.296875 140.566406 321.304688 141.523438 321.070313 142.410156 C 320.832031 143.296875 320.398438 144.050781 319.769531 144.65625 C 319.140625 145.261719 318.378906 145.675781 317.484375 145.902344 C 316.421875 146.164063 315.46875 146.164063 314.617188 145.902344 C 313.769531 145.640625 313.027344 145.082031 312.398438 144.234375 L 312.351563 144.246094 C 312.347656 145.15625 312.019531 145.898438 311.371094 146.464844 C 310.722656 147.035156 309.886719 147.480469 308.867188 147.804688 C 308.398438 147.957031 307.910156 148.109375 307.402344 148.269531 C 306.890625 148.429688 306.402344 148.621094 305.941406 148.84375 C 305.476563 149.066406 305.128906 149.316406 304.898438 149.582031 L 303.9375 145.730469 C 304.214844 145.515625 304.566406 145.320313 304.996094 145.144531 C 305.421875 144.96875 305.957031 144.777344 306.597656 144.5625 C 307.234375 144.351563 307.707031 144.183594 308.003906 144.0625 C 308.609375 143.804688 309.078125 143.527344 309.40625 143.222656 C 309.738281 142.917969 309.945313 142.539063 310.03125 142.09375 C 310.117188 141.644531 310.082031 141.105469 309.921875 140.464844 L 308.964844 136.621094 L 302.09375 138.335938 Z M 316.644531 134.707031 L 311.71875 135.9375 L 312.769531 140.15625 C 312.988281 141.035156 313.347656 141.648438 313.851563 141.996094 C 314.347656 142.34375 315.039063 142.402344 315.917969 142.1875 C 317.542969 141.78125 318.136719 140.691406 317.699219 138.925781 Z M 318.019531 165.277344 L 317.683594 161.421875 C 318.273438 161.28125 318.792969 161.011719 319.234375 160.605469 C 319.675781 160.195313 320.015625 159.691406 320.238281 159.085938 C 320.464844 158.484375 320.546875 157.863281 320.492188 157.226563 C 320.394531 156.085938 320.027344 155.179688 319.394531 154.496094 C 318.765625 153.816406 317.964844 153.347656 317.003906 153.09375 C 316.039063 152.839844 315.007813 152.761719 313.898438 152.859375 C 312.835938 152.953125 311.859375 153.207031 310.96875 153.625 C 310.082031 154.042969 309.386719 154.648438 308.886719 155.433594 C 308.386719 156.214844 308.183594 157.167969 308.285156 158.292969 C 308.386719 159.464844 308.835938 160.371094 309.625 161.003906 C 310.417969 161.636719 311.4375 161.976563 312.683594 162.023438 L 313.015625 165.855469 C 311.925781 165.855469 310.902344 165.683594 309.949219 165.347656 C 308.992188 165.003906 308.152344 164.511719 307.433594 163.859375 C 306.714844 163.210938 306.144531 162.4375 305.726563 161.542969 C 305.304688 160.652344 305.050781 159.664063 304.957031 158.585938 C 304.796875 156.777344 305.070313 155.164063 305.773438 153.746094 C 306.476563 152.328125 307.511719 151.203125 308.878906 150.371094 C 310.242188 149.539063 311.804688 149.042969 313.550781 148.890625 C 314.875 148.773438 316.140625 148.863281 317.347656 149.164063 C 318.554688 149.460938 319.625 149.960938 320.554688 150.660156 C 321.484375 151.359375 322.238281 152.234375 322.804688 153.285156 C 323.375 154.339844 323.722656 155.554688 323.84375 156.933594 C 323.960938 158.253906 323.8125 159.5 323.402344 160.675781 C 322.988281 161.851563 322.324219 162.839844 321.40625 163.640625 C 320.492188 164.449219 319.363281 164.992188 318.019531 165.277344 Z M 305.589844 167.414063 L 323.683594 167.414063 L 323.683594 171.398438 L 316.746094 171.398438 L 316.746094 178.722656 L 323.683594 178.722656 L 323.683594 182.683594 L 305.589844 182.683594 L 305.589844 178.722656 L 313.394531 178.722656 L 313.394531 171.398438 L 305.589844 171.398438 Z M 305.589844 167.414063 "/>
</g>
</svg>
